HIERARCHY
ROOT Hips
{
	OFFSET 0.000000 0.000000 0.000000
	CHANNELS 6 Xposition Yposition Zposition Xrotation Yrotation Zrotation
	JOINT LeftUpLeg_virtual
	{
		OFFSET 0.000000 0.000000 0.000000
		CHANNELS 3 Xrotation Yrotation Zrotation
		JOINT LeftUpLeg
		{
			OFFSET 13.026900 -6.336304 -1.092800
			CHANNELS 3 Xrotation Yrotation Zrotation
			JOINT LeftLeg
			{
				OFFSET 0.524474 -46.096886 9.782700
				CHANNELS 3 Xrotation Yrotation Zrotation
				JOINT LeftFoot
				{
					OFFSET -0.524474 -53.427422 -12.948200
					CHANNELS 3 Xrotation Yrotation Zrotation
					JOINT LeftToeBase
					{
						OFFSET 0.192200 -14.009700 16.364100
						CHANNELS 3 Xrotation Yrotation Zrotation
						JOINT LeftToe_End
						{
							OFFSET -1.784700 -0.561700 9.474800
							CHANNELS 3 Xrotation Yrotation Zrotation
							End Site
							{
								OFFSET 0 0 0
							}
						}
					}
				}
			}
		}
	}
	JOINT RightUpLeg_virtual
	{
		OFFSET 0.000000 0.000000 0.000000
		CHANNELS 3 Xrotation Yrotation Zrotation
		JOINT RightUpLeg
		{
			OFFSET -12.883000 -6.336304 -1.092800
			CHANNELS 3 Xrotation Yrotation Zrotation
			JOINT RightLeg
			{
				OFFSET -0.524587 -46.096825 9.782800
				CHANNELS 3 Xrotation Yrotation Zrotation
				JOINT RightFoot
				{
					OFFSET 0.524587 -53.427383 -12.948300
					CHANNELS 3 Xrotation Yrotation Zrotation
					JOINT RightToeBase
					{
						OFFSET -0.192200 -14.009700 16.364100
						CHANNELS 3 Xrotation Yrotation Zrotation
						JOINT RightToe_End
						{
							OFFSET 1.784700 -0.561700 9.474800
							CHANNELS 3 Xrotation Yrotation Zrotation
							End Site
							{
								OFFSET 0 0 0
							}
						}
					}
				}
			}
		}
	}
	JOINT Spine_virtual
	{
		OFFSET 0.000000 0.000000 0.000000
		CHANNELS 3 Xrotation Yrotation Zrotation
		JOINT Spine
		{
			OFFSET 0.072000 7.257294 -0.789700
			CHANNELS 3 Xrotation Yrotation Zrotation
			JOINT Spine1
			{
				OFFSET 0.000000 12.508769 -0.658067
				CHANNELS 3 Xrotation Yrotation Zrotation
				JOINT Spine1_split
				{
					OFFSET 0.000000 12.508769 -0.658067
					CHANNELS 3 Xrotation Yrotation Zrotation
					JOINT Spine2
					{
						OFFSET 0.000000 12.508769 -0.658067
						CHANNELS 3 Xrotation Yrotation Zrotation
						JOINT Neck_virtual
						{
							OFFSET 0.000000 0.000000 0.000000
							CHANNELS 3 Xrotation Yrotation Zrotation
							JOINT Neck
							{
								OFFSET 0.000000 14.033295 7.520400
								CHANNELS 3 Xrotation Yrotation Zrotation
								JOINT Head
								{
									OFFSET 0.000000 8.198502 5.703100
									CHANNELS 3 Xrotation Yrotation Zrotation
									JOINT HeadTop_End
									{
										OFFSET 0.000000 17.760803 13.332701
										CHANNELS 3 Xrotation Yrotation Zrotation
										End Site
										{
											OFFSET 0 0 0
										}
									}
								}
							}
						}
						JOINT LeftShoulder_virtual
						{
							OFFSET 0.000000 0.000000 0.000000
							CHANNELS 3 Xrotation Yrotation Zrotation
							JOINT LeftShoulder
							{
								OFFSET 6.292450 5.785301 -0.669000
								CHANNELS 3 Xrotation Yrotation Zrotation
								JOINT LeftShoulder_split
								{
									OFFSET 6.292450 5.785301 -0.669000
									CHANNELS 3 Xrotation Yrotation Zrotation
									JOINT LeftArm
									{
										OFFSET 13.907140 -6.093903 1.965100
										CHANNELS 3 Xrotation Yrotation Zrotation
										JOINT LeftForeArm
										{
											OFFSET 34.140198 0.000000 0.000000
											CHANNELS 3 Xrotation Yrotation Zrotation
											JOINT LeftHand
											{
												OFFSET 40.960209 0.000000 0.000000
												CHANNELS 3 Xrotation Yrotation Zrotation
												End Site
												{
													OFFSET 0 0 0
												}
											}
										}
									}
								}
							}
						}
						JOINT RightShoulder_virtual
						{
							OFFSET 0.000000 0.000000 0.000000
							CHANNELS 3 Xrotation Yrotation Zrotation
							JOINT RightShoulder
							{
								OFFSET -6.292450 5.785301 -0.669000
								CHANNELS 3 Xrotation Yrotation Zrotation
								JOINT RightShoulder_split
								{
									OFFSET -6.292450 5.785301 -0.669000
									CHANNELS 3 Xrotation Yrotation Zrotation
									JOINT RightArm
									{
										OFFSET -13.907140 -6.093903 1.965100
										CHANNELS 3 Xrotation Yrotation Zrotation
										JOINT RightForeArm
										{
											OFFSET -34.140198 0.000000 0.000000
											CHANNELS 3 Xrotation Yrotation Zrotation
											JOINT RightHand
											{
												OFFSET -40.960209 0.000000 0.000000
												CHANNELS 3 Xrotation Yrotation Zrotation
												End Site
												{
													OFFSET 0 0 0
												}
											}
										}
									}
								}
							}
						}
					}
				}
			}
		}
	}
}
MOTION
Frames: 4
Frame Time: 0.03333333
4.670098 108.674660 2.541363 0.000000 0.000000 0.000000 17.152963 -85.471949 18.777409 -24.379406 30.572897 26.295170 20.426181 -9.542307 0.964277 -2.761459 2.560113 -15.492244 0.029419 -0.375523 -0.552802 0.000000 0.000000 0.000000 8.129178 -84.997073 10.577941 -27.225863 -10.086784 -21.376836 14.758227 4.569765 -4.392318 3.979864 6.887010 20.630371 1.309847 0.048667 0.606017 0.000000 0.000000 0.000000 7.707088 -81.350913 9.766707 6.596199 -3.651910 -2.763939 1.984964 -7.924368 -0.430438 0.505430 0.315505 0.192627 0.000000 0.000000 0.000000 1.977099 -8.382669 -0.873858 -8.351492 6.219087 7.020684 91.225236 78.026565 -95.091574 0.000000 0.000000 0.000000 3.300988 -8.965416 -0.208691 5.113830 -1.280199 11.103247 -3.613926 -4.442822 3.043370 -35.366491 11.723082 -3.174700 -3.882193 -10.870570 0.459935 0.000000 0.000000 0.000000 2.533708 -8.682022 -0.827838 -0.105704 1.099859 -21.503500 0.923205 1.581580 7.586079 -49.862150 42.139982 44.878270 179.096562 37.379563 -177.985154 0.000000 0.000000 0.000000 
4.568660 108.665451 2.530773 0.000000 0.000000 0.000000 16.324885 -85.376190 18.004640 -24.277195 30.539955 26.233078 20.381619 -9.625204 0.953926 -2.770796 2.583724 -15.497872 0.022118 -0.375089 -0.555372 0.000000 0.000000 0.000000 7.470266 -84.906150 9.985838 -27.001753 -10.020861 -21.430888 14.805996 4.399892 -4.400570 3.802301 6.834533 20.730587 1.299108 0.044812 0.602117 0.000000 0.000000 0.000000 7.492414 -81.244403 9.602811 6.574699 -3.749861 -2.829570 1.978611 -8.016450 -0.414756 0.505438 0.315832 0.188669 0.000000 0.000000 0.000000 1.981325 -8.476218 -0.862376 -8.373005 6.291095 7.241540 93.918024 77.959602 -97.583527 0.000000 0.000000 0.000000 3.319477 -9.059793 -0.183682 5.023445 -1.056764 11.122474 -3.640890 -4.444545 3.025387 -35.325967 11.572739 -3.396385 -3.890697 -10.886805 0.454020 0.000000 0.000000 0.000000 2.549747 -8.778047 -0.820386 -0.012270 1.150344 -21.426507 0.905756 1.586366 7.641534 -49.362064 41.684515 44.644818 179.116534 37.018570 -177.976643 0.000000 0.000000 0.000000 
4.469347 108.656853 2.525257 0.000000 0.000000 0.000000 15.455202 -85.283702 17.199106 -24.179582 30.505865 26.165282 20.344652 -9.703096 0.948851 -2.771514 2.600528 -15.505515 0.018488 -0.373715 -0.558825 0.000000 0.000000 0.000000 6.773802 -84.812836 9.363273 -26.766185 -9.959774 -21.487620 14.851720 4.231035 -4.413205 3.619516 6.777865 20.839454 1.282483 0.040628 0.600641 0.000000 0.000000 0.000000 7.225147 -81.142634 9.396536 6.563591 -3.845762 -2.907709 1.970245 -8.108010 -0.392911 0.506499 0.314723 0.186210 0.000000 0.000000 0.000000 1.985022 -8.568623 -0.845496 -8.394162 6.370862 7.462084 96.585589 77.855059 -100.032512 0.000000 0.000000 0.000000 3.341070 -9.154223 -0.152018 4.931940 -0.841548 11.144963 -3.661031 -4.443530 3.011421 -35.294712 11.434771 -3.616732 -3.905908 -10.889620 0.439796 0.000000 0.000000 0.000000 2.565634 -8.873457 -0.807504 0.087459 1.202513 -21.341034 0.887516 1.599165 7.693412 -48.829968 41.217207 44.385738 179.144578 36.663981 -177.966412 0.000000 0.000000 0.000000 
4.372564 108.646057 2.521461 0.000000 0.000000 0.000000 14.558555 -85.193113 16.372937 -24.089732 30.470963 26.094956 20.316056 -9.775778 0.948124 -2.768674 2.612770 -15.513293 0.020983 -0.371257 -0.564068 0.000000 0.000000 0.000000 6.051809 -84.714317 8.719396 -26.522432 -9.903239 -21.549146 14.903131 4.064610 -4.430159 3.435049 6.717668 20.960222 1.257345 0.035897 0.602051 0.000000 0.000000 0.000000 6.910732 -81.046034 9.151512 6.565357 -3.939522 -2.996614 1.960112 -8.197239 -0.364555 0.506955 0.315341 0.186170 0.000000 0.000000 0.000000 1.987891 -8.657526 -0.823094 -8.412136 6.457377 7.673556 99.167865 77.717512 -102.389201 0.000000 0.000000 0.000000 3.365110 -9.246900 -0.113873 4.842999 -0.645876 11.171828 -3.668793 -4.439495 2.999245 -35.273983 11.320156 -3.824577 -3.927259 -10.886568 0.417678 0.000000 0.000000 0.000000 2.580486 -8.966244 -0.788469 0.193113 1.259906 -21.246169 0.866668 1.614605 7.736925 -48.273861 40.753563 44.098024 179.184467 36.328181 -177.956727 0.000000 0.000000 0.000000 
